<?xml version="1.0" encoding="UTF-8"?>
<svg xmlns="http://www.w3.org/2000/svg" id="Layer_1" data-name="Layer 1" viewBox="0 0 24 24">
  <path d="m8,7c-1.103,0-2,.897-2,2s.897,2,2,2,2-.897,2-2-.897-2-2-2Zm0,3c-.551,0-1-.448-1-1s.449-1,1-1,1,.448,1,1-.449,1-1,1Zm0,5.5c0,.276-.224.5-.5.5h-2c-.276,0-.5-.224-.5-.5s.224-.5.5-.5h2c.276,0,.5.224.5.5Zm14.5-6.5h-.5v-1.5c0-2.481-2.019-4.5-4.5-4.5h-5V.5c0-.276-.224-.5-.5-.5s-.5.224-.5.5v2.5h-5c-2.481,0-4.5,2.019-4.5,4.5v1.5h-.5c-.827,0-1.5.673-1.5,1.5v4c0,.827.673,1.5,1.5,1.5h.5v.5c0,2.481,2.019,4.5,4.5,4.5h11c2.481,0,4.5-2.019,4.5-4.5v-.5h.5c.827,0,1.5-.673,1.5-1.5v-4c0-.827-.673-1.5-1.5-1.5ZM2,15h-.5c-.276,0-.5-.225-.5-.5v-4c0-.275.224-.5.5-.5h.5v5Zm19,1.5c0,1.93-1.57,3.5-3.5,3.5H6.5c-1.93,0-3.5-1.57-3.5-3.5V7.5c0-1.93,1.57-3.5,3.5-3.5h11c1.93,0,3.5,1.57,3.5,3.5v9Zm2-2c0,.275-.225.5-.5.5h-.5v-5h.5c.275,0,.5.225.5.5v4Zm-4,1c0,.276-.224.5-.5.5h-2c-.276,0-.5-.224-.5-.5s.224-.5.5-.5h2c.276,0,.5.224.5.5Zm-5,0c0,.276-.224.5-.5.5h-3c-.276,0-.5-.224-.5-.5s.224-.5.5-.5h3c.276,0,.5.224.5.5Zm4-6.5c0-1.103-.897-2-2-2s-2,.897-2,2,.897,2,2,2,2-.897,2-2Zm-3,0c0-.552.448-1,1-1s1,.448,1,1-.448,1-1,1-1-.448-1-1Z"/>
</svg>
